<svg xmlns="http://www.w3.org/2000/svg" viewBox="0 0 800 440" fill="none" role="img" aria-label="Curbily landing page preview graphic">
  <defs>
    <linearGradient id="heroGrad" x1="0%" y1="0%" x2="100%" y2="100%">
      <stop offset="0%" stop-color="#0f172a"/>
      <stop offset="55%" stop-color="#1e3a8a"/>
      <stop offset="100%" stop-color="#0ea5e9"/>
    </linearGradient>
    <filter id="sh" x="-20%" y="-20%" width="140%" height="140%">
      <feDropShadow dx="0" dy="8" stdDeviation="12" flood-color="#020617" flood-opacity=".35"/>
    </filter>
  </defs>
  <rect width="800" height="440" rx="14" fill="#e2e8f0"/>
  <g filter="url(#sh)" transform="translate(24,36)">
    <rect width="752" height="368" rx="12" fill="#fff"/>
    <rect width="752" height="52" rx="12" fill="#f8fafc"/>
    <rect x="0" y="40" width="752" height="12" fill="#f1f5f9"/>
    <circle cx="32" cy="26" r="6" fill="#ef4444"/>
    <circle cx="52" cy="26" r="6" fill="#fbbf24"/>
    <circle cx="72" cy="26" r="6" fill="#22c55e"/>
    <text x="400" y="31" fill="#475569" font-family="system-ui,sans-serif" font-size="13" font-weight="600" text-anchor="middle">curbily.com</text>
    <rect x="660" y="14" width="72" height="24" rx="6" fill="#0f172a"/>
    <text x="696" y="30" fill="#fff" font-family="system-ui,sans-serif" font-size="10" font-weight="600" text-anchor="middle">Sign in</text>
    <text x="40" y="96" fill="#0f172a" font-family="system-ui,sans-serif" font-size="26" font-weight="700">Hollywood in a box</text>
    <text x="40" y="132" fill="#64748b" font-family="system-ui,sans-serif" font-size="14">Operating system for brands, talent, and production.</text>
    <rect x="40" y="158" width="140" height="40" rx="8" fill="#0f172a"/>
    <text x="110" y="184" fill="#fff" font-family="system-ui,sans-serif" font-size="13" font-weight="600" text-anchor="middle">Get started</text>
    <rect x="192" y="158" width="120" height="40" rx="8" fill="#e2e8f0"/>
    <text x="252" y="184" fill="#334155" font-family="system-ui,sans-serif" font-size="13" font-weight="600" text-anchor="middle">Book demo</text>
    <rect x="420" y="72" width="292" height="232" rx="12" fill="url(#heroGrad)" opacity=".95"/>
    <rect x="452" y="104" width="228" height="14" rx="4" fill="#fff" opacity=".2"/>
    <rect x="452" y="132" width="160" height="10" rx="3" fill="#fff" opacity=".14"/>
    <rect x="452" y="156" width="200" height="10" rx="3" fill="#fff" opacity=".14"/>
    <rect x="452" y="188" width="228" height="72" rx="8" fill="#fff" opacity=".12"/>
    <rect x="452" y="276" width="96" height="12" rx="3" fill="#38bdf8" opacity=".9"/>
  </g>
</svg>
